<?xml version="1.0" encoding="UTF-8"?>
<!DOCTYPE svg PUBLIC "-//W3C//DTD SVG 1.1//EN" "http://www.w3.org/Graphics/SVG/1.1/DTD/svg11.dtd">
<svg xmlns="http://www.w3.org/2000/svg" version="1.1" width="500px" height="500px" style="shape-rendering:geometricPrecision; text-rendering:geometricPrecision; image-rendering:optimizeQuality; fill-rule:evenodd; clip-rule:evenodd" xmlns:xlink="http://www.w3.org/1999/xlink">
<g><path style="opacity:0.089" fill="#f3f5fa" d="M 246.5,48.5 C 334.621,50.7891 397.787,91.4558 436,170.5C 456.296,222.711 456.629,275.044 437,327.5C 411.183,385.652 368.016,424.485 307.5,444C 238.968,462.024 176.968,449.357 121.5,406C 67.5516,358.869 43.7182,299.369 50,227.5C 60.4762,153.674 98.9762,100.174 165.5,67C 191.37,55.2798 218.37,49.1131 246.5,48.5 Z"/></g>
<g><path style="opacity:0.993" fill="#4267b2" d="M 229.5,51.5 C 299.524,46.6122 357.69,70.2788 404,122.5C 446.825,177.08 459.491,238.08 442,305.5C 422.376,368.125 382.209,411.959 321.5,437C 244.701,463.039 175.701,449.706 114.5,397C 58.7328,340.786 39.8994,273.953 58,196.5C 79.0826,129.084 122.916,83.5841 189.5,60C 202.691,55.973 216.025,53.1396 229.5,51.5 Z"/></g>
<g><path style="opacity:0.996" fill="#fbf5da" d="M 112.5,200.5 C 148.168,200.333 183.835,200.5 219.5,201C 223.367,204.66 224.534,209.16 223,214.5C 221.992,216.259 220.492,217.426 218.5,218C 183.5,218.667 148.5,218.667 113.5,218C 110.033,216.308 108.7,213.475 109.5,209.5C 109.028,205.904 110.028,202.904 112.5,200.5 Z"/></g>
<g><path style="opacity:0.996" fill="#fbf5da" d="M 287.5,200.5 C 322.835,200.333 358.168,200.5 393.5,201C 394.931,201.465 396.097,202.299 397,203.5C 397.667,207.167 397.667,210.833 397,214.5C 396.5,216.333 395.333,217.5 393.5,218C 358.167,218.667 322.833,218.667 287.5,218C 284.033,216.308 282.7,213.475 283.5,209.5C 282.717,205.387 284.051,202.387 287.5,200.5 Z"/></g>
<g><path style="opacity:0.996" fill="#fbf5da" d="M 196.5,315.5 C 231.835,315.333 267.168,315.5 302.5,316C 306.238,317.399 307.904,320.066 307.5,324C 307.902,328.2 306.235,331.2 302.5,333C 267.5,333.667 232.5,333.667 197.5,333C 193.765,331.2 192.098,328.2 192.5,324C 192.667,322.5 192.833,321 193,319.5C 194.376,318.295 195.542,316.962 196.5,315.5 Z"/></g>
</svg>
