<?xml version="1.0" encoding="UTF-8"?>
<!DOCTYPE svg PUBLIC "-//W3C//DTD SVG 1.1//EN" "http://www.w3.org/Graphics/SVG/1.1/DTD/svg11.dtd">
<svg xmlns="http://www.w3.org/2000/svg" version="1.1" width="500px" height="500px" style="shape-rendering:geometricPrecision; text-rendering:geometricPrecision; image-rendering:optimizeQuality; fill-rule:evenodd; clip-rule:evenodd" xmlns:xlink="http://www.w3.org/1999/xlink">
<g><path style="opacity:0.09" fill="#fffdf7" d="M 274.5,9.5 C 277.32,9.24751 279.986,9.74751 282.5,11C 293.046,23.2712 296.546,37.4379 293,53.5C 289.255,73.1512 281.089,90.6512 268.5,106C 259.838,105.757 252.338,102.59 246,96.5C 243.594,89.3503 242.927,82.0169 244,74.5C 245.404,54.8491 251.404,36.8491 262,20.5C 265.767,16.2235 269.934,12.5569 274.5,9.5 Z"/></g>
<g><path style="opacity:0.975" fill="#ffde5a" d="M 276.5,11.5 C 279.099,11.5494 281.266,12.5494 283,14.5C 291.047,25.6164 293.714,37.9497 291,51.5C 287.458,71.8245 279.125,89.8245 266,105.5C 260.048,103.024 254.382,100.024 249,96.5C 245.644,89.1952 244.644,81.5285 246,73.5C 247.608,56.391 252.608,40.391 261,25.5C 265.765,20.2277 270.931,15.5611 276.5,11.5 Z"/></g>
<g><path style="opacity:0.096" fill="#fffdf5" d="M 162.5,33.5 C 165.518,33.3354 168.518,33.502 171.5,34C 184.333,40.1667 193.833,49.6667 200,62.5C 208.764,78.877 211.764,96.2103 209,114.5C 208.697,116.888 207.863,119.055 206.5,121C 201.08,121.361 195.746,122.194 190.5,123.5C 184.682,123.174 179.849,120.841 176,116.5C 162.097,98.9652 154.597,78.9652 153.5,56.5C 153.532,51.3694 154.366,46.3694 156,41.5C 157.305,38.0386 159.471,35.372 162.5,33.5 Z"/></g>
<g><path style="opacity:0.976" fill="#ffde5a" d="M 163.5,35.5 C 168.725,35.2975 173.392,36.7975 177.5,40C 193.321,52.7887 203.154,69.2887 207,89.5C 207.973,99.4657 207.473,109.299 205.5,119C 199.14,119.91 192.807,120.576 186.5,121C 178.756,116.71 172.923,110.543 169,102.5C 157.981,83.7075 154.314,63.7075 158,42.5C 158.967,39.3794 160.8,37.046 163.5,35.5 Z"/></g>
<g><path style="opacity:0.088" fill="#fffdf5" d="M 369.5,43.5 C 371.527,43.3379 373.527,43.5045 375.5,44C 380.353,47.8553 384.853,52.022 389,56.5C 382.441,92.0877 362.608,117.588 329.5,133C 323.26,134.463 318.76,132.297 316,126.5C 314.604,116.778 315.937,107.445 320,98.5C 322.333,93.8333 324.667,89.1667 327,84.5C 340.098,69.566 354.265,55.8993 369.5,43.5 Z"/></g>
<g><path style="opacity:0.974" fill="#ffde5a" d="M 370.5,45.5 C 376.815,48.1029 382.315,52.1029 387,57.5C 379.892,91.6332 360.392,116.133 328.5,131C 323.577,131.955 320.077,130.121 318,125.5C 317.429,109.212 322.095,94.5457 332,81.5C 344.126,68.5334 356.96,56.5334 370.5,45.5 Z"/></g>
<g><path style="opacity:0.088" fill="#fffdf5" d="M 71.5,93.5 C 81.2252,92.0929 90.2252,93.9263 98.5,99C 116.743,108.908 132.243,122.075 145,138.5C 147.245,141.881 147.912,145.548 147,149.5C 142.955,155.09 138.788,160.59 134.5,166C 131.833,166.667 129.167,166.667 126.5,166C 117.459,161.875 108.126,158.542 98.5,156C 93.5325,152.034 88.8658,147.701 84.5,143C 80.0843,140.042 75.5843,137.208 71,134.5C 67.3333,127.833 63.6667,121.167 60,114.5C 58.7247,111.787 57.8914,108.953 57.5,106C 57.4076,103.186 58.4076,100.853 60.5,99C 64.2585,97.1207 67.9252,95.2874 71.5,93.5 Z"/></g>
<g><path style="opacity:0.976" fill="#ffde5a" d="M 72.5,95.5 C 79.8558,94.7676 86.8558,95.9343 93.5,99C 112.714,109.217 129.214,122.717 143,139.5C 144.257,141.513 145.091,143.679 145.5,146C 142.267,152.452 138.267,158.452 133.5,164C 131.167,164.667 128.833,164.667 126.5,164C 117.123,159.541 107.456,155.875 97.5,153C 90.7511,144.57 82.5844,138.07 73,133.5C 67.8295,124.659 63.3295,115.492 59.5,106C 59.8339,103.825 60.8339,101.992 62.5,100.5C 65.9252,98.7874 69.2585,97.1207 72.5,95.5 Z"/></g>
<g><path style="opacity:0.087" fill="#fffdf5" d="M 435.5,125.5 C 441.367,125.067 446.534,126.734 451,130.5C 452.301,132.365 452.635,134.365 452,136.5C 447.878,142.291 443.378,147.791 438.5,153C 430.547,158.618 422.88,164.618 415.5,171C 400.482,179.12 384.482,181.787 367.5,179C 362.86,177.908 358.193,176.908 353.5,176C 351.675,174.534 351.175,172.701 352,170.5C 354.852,161.313 360.352,154.146 368.5,149C 390.092,138.638 412.426,130.805 435.5,125.5 Z"/></g>
<g><path style="opacity:0.97" fill="#ffde5a" d="M 429.5,128.5 C 434.511,128.334 439.511,128.501 444.5,129C 446.976,130.309 448.976,132.142 450.5,134.5C 446.738,140.431 442.405,145.931 437.5,151C 430.256,155.573 423.59,160.907 417.5,167C 402.608,177.032 386.274,180.366 368.5,177C 363.607,175.518 358.607,174.685 353.5,174.5C 356.207,163.923 362.207,155.756 371.5,150C 390.403,141.315 409.736,134.148 429.5,128.5 Z"/></g>
<g><path style="opacity:0.096" fill="#fffdf6" d="M 237.5,129.5 C 264.006,127.002 286.506,135.336 305,154.5C 311.164,161.826 315.497,170.16 318,179.5C 321.02,192.343 322.353,205.343 322,218.5C 320.333,226.5 318.667,234.5 317,242.5C 307.137,252.697 296.971,262.53 286.5,272C 267.873,282.181 248.207,284.848 227.5,280C 224.898,279.117 222.731,277.617 221,275.5C 217.333,268.833 213.667,262.167 210,255.5C 209.753,240.329 216.42,229.329 230,222.5C 233.11,227.176 236.61,231.676 240.5,236C 244.894,239.259 249.561,239.925 254.5,238C 262.374,226.15 263.541,213.65 258,200.5C 254.569,196.115 250.069,194.448 244.5,195.5C 216.301,196.88 196.801,210.546 186,236.5C 183.252,253.263 187.252,268.263 198,281.5C 204.527,288.027 211.027,294.527 217.5,301C 227.061,308.057 237.727,310.724 249.5,309C 265.698,304.617 281.698,299.617 297.5,294C 313.463,283.714 327.963,271.548 341,257.5C 346.751,249.164 351.584,240.331 355.5,231C 360.485,229.483 362.485,231.316 361.5,236.5C 357.435,258.425 352.269,280.092 346,301.5C 338.217,315.617 327.383,326.784 313.5,335C 301.99,341.255 290.323,347.255 278.5,353C 258.678,360.105 238.345,362.105 217.5,359C 190.644,348.486 169.478,330.986 154,306.5C 137.485,275.054 134.485,242.387 145,208.5C 158.107,181.062 177.273,158.896 202.5,142C 213.609,135.911 225.276,131.744 237.5,129.5 Z"/></g>
<g><path style="opacity:0.982" fill="#ffde5a" d="M 240.5,131.5 C 250.326,130.885 259.992,131.718 269.5,134C 277.009,138.255 284.676,142.255 292.5,146C 310.594,160.694 319.761,179.861 320,203.5C 320.667,208.5 320.667,213.5 320,218.5C 318.434,226.59 316.434,234.59 314,242.5C 303.356,254.486 291.522,264.986 278.5,274C 263.013,280.447 247.013,282.114 230.5,279C 227.751,277.877 225.251,276.377 223,274.5C 219.333,267.833 215.667,261.167 212,254.5C 212.907,241.693 218.741,231.693 229.5,224.5C 233.738,236.242 242.071,241.742 254.5,241C 264.367,230.025 266.867,217.525 262,203.5C 259.142,195.809 253.642,192.476 245.5,193.5C 220.73,194.105 201.563,204.771 188,225.5C 181.876,237.378 180.876,249.711 185,262.5C 193.968,283.802 208.801,299.635 229.5,310C 237.825,311.959 246.158,311.959 254.5,310C 268.561,305.869 282.561,301.535 296.5,297C 316.737,285.437 333.904,270.27 348,251.5C 350.93,245.543 353.763,239.543 356.5,233.5C 357.325,232.614 358.325,232.281 359.5,232.5C 355.884,255.517 350.717,278.184 344,300.5C 336.167,315 325,326.167 310.5,334C 297.016,341.742 283.016,348.408 268.5,354C 249.844,359.321 231.178,359.655 212.5,355C 157.807,327.12 134.641,282.62 143,221.5C 154.952,188.22 175.785,162.053 205.5,143C 216.469,136.621 228.135,132.788 240.5,131.5 Z"/></g>
<g><path style="opacity:0.097" fill="#fffcf4" d="M 32.5,182.5 C 62.0435,184.649 91.0435,189.816 119.5,198C 124.143,200.072 125.643,203.572 124,208.5C 118.759,215.798 112.926,222.632 106.5,229C 88.8497,229.837 71.5164,227.837 54.5,223C 47.1781,220.669 39.8447,218.335 32.5,216C 26.4501,213.068 23.6167,208.235 24,201.5C 23.3333,197.167 23.3333,192.833 24,188.5C 25.6689,184.639 28.5022,182.639 32.5,182.5 Z"/></g>
<g><path style="opacity:0.972" fill="#ffde5a" d="M 30.5,184.5 C 60.2827,187.186 89.616,192.353 118.5,200C 120.803,201.135 122.136,202.968 122.5,205.5C 117.967,213.043 112.634,220.043 106.5,226.5C 81.3831,227.312 57.0497,223.145 33.5,214C 30.8293,212.75 28.6626,210.917 27,208.5C 26.1812,202.17 25.8479,195.836 26,189.5C 27.1932,187.503 28.6932,185.836 30.5,184.5 Z"/></g>
<g><path style="opacity:0.17" fill="#fffcf2" d="M 199.5,198.5 C 199.737,203.649 197.07,206.982 191.5,208.5C 190.833,208.167 190.167,207.833 189.5,207.5C 192.853,204.478 196.187,201.478 199.5,198.5 Z"/></g>
<g><path style="opacity:0.085" fill="#fffdf5" d="M 430.5,211.5 C 439.839,211.334 449.173,211.5 458.5,212C 469.392,214.194 478.559,219.36 486,227.5C 486.667,228.833 486.667,230.167 486,231.5C 482.749,235.422 478.916,238.588 474.5,241C 451.247,252.917 426.914,255.917 401.5,250C 396.223,246.629 393.057,241.796 392,235.5C 391.333,232.167 391.333,228.833 392,225.5C 403.712,217.552 416.545,212.886 430.5,211.5 Z"/></g>
<g><path style="opacity:0.971" fill="#ffde5a" d="M 428.5,213.5 C 439.564,213.094 450.564,213.594 461.5,215C 470.487,217.822 478.154,222.655 484.5,229.5C 481.204,234.297 476.871,237.797 471.5,240C 448.671,251.095 425.005,253.428 400.5,247C 395.32,241.128 393.154,234.294 394,226.5C 404.729,219.872 416.229,215.538 428.5,213.5 Z"/></g>
<g><path style="opacity:0.286" fill="#fff9e2" d="M 185.5,211.5 C 186.376,211.369 187.043,211.702 187.5,212.5C 186.189,215.135 184.522,217.469 182.5,219.5C 182.167,219.167 181.833,218.833 181.5,218.5C 183.11,216.275 184.443,213.941 185.5,211.5 Z"/></g>
<g><path style="opacity:0.095" fill="#fffdf7" d="M 96.5,257.5 C 101.628,257.112 106.628,257.612 111.5,259C 112.667,260.167 113.833,261.333 115,262.5C 116.954,267.705 119.287,272.705 122,277.5C 123.145,285.367 119.978,290.867 112.5,294C 103.168,299.109 93.5012,303.443 83.5,307C 61.0037,309.956 39.1704,307.456 18,299.5C 17.3333,298.167 17.3333,296.833 18,295.5C 27.2387,279.943 40.7387,270.11 58.5,266C 71.2221,262.831 83.8888,259.998 96.5,257.5 Z"/></g>
<g><path style="opacity:0.974" fill="#ffde5a" d="M 95.5,259.5 C 100.628,259.112 105.628,259.612 110.5,261C 114.048,266.594 117.215,272.427 120,278.5C 120.667,280.5 120.667,282.5 120,284.5C 117.079,288.092 113.579,290.925 109.5,293C 100.618,297.275 91.6179,301.275 82.5,305C 60.7825,308.087 39.7825,305.587 19.5,297.5C 28.3897,281.794 41.723,271.961 59.5,268C 71.6549,265.207 83.6549,262.374 95.5,259.5 Z"/></g>
<g><path style="opacity:0.087" fill="#fffdf6" d="M 380.5,290.5 C 399.326,290.456 416.992,294.956 433.5,304C 443.853,311.682 452.02,321.182 458,332.5C 461.405,339.777 459.238,344.61 451.5,347C 447.551,348.184 443.551,348.518 439.5,348C 420.999,343.055 402.999,336.722 385.5,329C 381,325.833 376.5,322.667 372,319.5C 370.596,317.361 369.763,315.028 369.5,312.5C 370.152,303.476 373.819,296.143 380.5,290.5 Z"/></g>
<g><path style="opacity:0.974" fill="#ffde5a" d="M 381.5,292.5 C 401.997,292.786 420.664,298.619 437.5,310C 445.959,317.45 452.459,326.283 457,336.5C 457.667,337.833 457.667,339.167 457,340.5C 451.475,345.674 444.975,347.507 437.5,346C 426.637,341.934 415.637,338.268 404.5,335C 392.43,331.225 381.93,325.059 373,316.5C 371.604,306.848 374.437,298.848 381.5,292.5 Z"/></g>
<g><path style="opacity:0.3" fill="#fffaea" d="M 319.5,316.5 C 320.552,316.351 321.552,316.517 322.5,317C 319.264,319.868 315.764,322.368 312,324.5C 311.333,323.833 311.333,323.167 312,322.5C 314.688,320.636 317.188,318.636 319.5,316.5 Z"/></g>
<g><path style="opacity:0.092" fill="#fffdf6" d="M 135.5,321.5 C 139.514,321.334 143.514,321.501 147.5,322C 148.916,324.627 149.583,327.46 149.5,330.5C 143.631,364.051 125.298,388.217 94.5,403C 88.1264,403.608 81.7931,403.275 75.5,402C 73.9716,400.352 73.3049,398.352 73.5,396C 74.1052,388.64 75.6052,381.474 78,374.5C 83.5806,363.666 89.9139,353.332 97,343.5C 107.603,332.119 120.436,324.786 135.5,321.5 Z"/></g>
<g><path style="opacity:0.974" fill="#ffde5a" d="M 134.5,323.5 C 138.5,323.5 142.5,323.5 146.5,323.5C 146.839,338.318 143.006,351.985 135,364.5C 124.581,380.588 110.748,392.754 93.5,401C 87.4964,401.3 81.4964,401.134 75.5,400.5C 75.5613,391.918 77.0613,383.585 80,375.5C 86.1661,364.497 92.8327,353.83 100,343.5C 109.821,333.843 121.321,327.176 134.5,323.5 Z"/></g>
<g><path style="opacity:0.09" fill="#fffdf8" d="M 384.5,436.5 C 379.718,437.549 375.051,436.715 370.5,434C 349.058,418.891 332.225,399.724 320,376.5C 319.056,373.653 319.556,371.153 321.5,369C 329.204,363.098 337.87,360.431 347.5,361C 363.548,370.381 375.382,383.548 383,400.5C 385.612,412.552 386.112,424.552 384.5,436.5 Z"/></g>
<g><path style="opacity:0.971" fill="#ffde5a" d="M 383.5,421.5 C 383.819,426.363 383.486,431.03 382.5,435.5C 376.124,434.628 370.457,432.128 365.5,428C 346.972,412.97 332.306,394.803 321.5,373.5C 328.2,366.151 336.533,362.651 346.5,363C 360.358,371.192 371.191,382.358 379,396.5C 382.852,404.399 384.352,412.733 383.5,421.5 Z"/></g>
<g><path style="opacity:0.084" fill="#fffdf5" d="M 197.5,378.5 C 201.684,377.704 204.85,379.037 207,382.5C 206.914,391.255 204.914,399.588 201,407.5C 193.083,423.409 182.249,436.909 168.5,448C 159.512,453.551 149.845,456.884 139.5,458C 135.328,453.803 134.495,448.969 137,443.5C 144.331,409.675 164.498,388.008 197.5,378.5 Z"/></g>
<g><path style="opacity:0.97" fill="#ffde5a" d="M 198.5,380.5 C 200.467,380.261 202.301,380.594 204,381.5C 204.738,393.213 201.738,403.88 195,413.5C 187.315,428.186 176.482,440.02 162.5,449C 155.379,452.114 148.045,454.614 140.5,456.5C 138.987,454.465 138.321,452.131 138.5,449.5C 143.665,413.35 163.665,390.35 198.5,380.5 Z"/></g>
<g><path style="opacity:0.094" fill="#fffdf6" d="M 254.5,396.5 C 260.701,395.285 265.868,396.952 270,401.5C 286.755,431.272 287.755,461.605 273,492.5C 271.938,493.899 270.605,494.899 269,495.5C 256.272,492.105 248.272,484.105 245,471.5C 243.59,453.519 243.257,435.519 244,417.5C 244.377,408.746 247.877,401.746 254.5,396.5 Z"/></g>
<g><path style="opacity:0.972" fill="#ffde5a" d="M 255.5,398.5 C 260.447,397.628 264.613,398.961 268,402.5C 279.009,421.858 283.009,442.525 280,464.5C 277.122,474.301 273.955,483.967 270.5,493.5C 258.324,490.825 250.491,483.492 247,471.5C 245.828,453.511 245.495,435.511 246,417.5C 246.248,409.523 249.414,403.19 255.5,398.5 Z"/></g>
<g><path style="opacity:0.21" fill="#fff5cc" d="M 383.5,421.5 C 384.487,426.305 384.821,431.305 384.5,436.5C 383.508,436.672 382.842,436.338 382.5,435.5C 383.486,431.03 383.819,426.363 383.5,421.5 Z"/></g>
</svg>
